<svg xmlns="http://www.w3.org/2000/svg" version="1.1" xmlns:xlink="http://www.w3.org/1999/xlink" xmlns:svgjs="http://svgjs.dev/svgjs" width="1000" height="623" viewBox="0 0 1000 623"><g transform="matrix(1,0,0,1,-0.6060606060606233,0.2522267206477409)"><svg viewBox="0 0 396 247" data-background-color="#ffffff" preserveAspectRatio="xMidYMid meet" height="623" width="1000" xmlns="http://www.w3.org/2000/svg" xmlns:xlink="http://www.w3.org/1999/xlink"><g id="tight-bounds" transform="matrix(1,0,0,1,0.2400000000000091,-0.09999999999999432)"><svg viewBox="0 0 395.52 247.2" height="247.2" width="395.52"><g><svg></svg></g><g><svg viewBox="0 0 395.52 247.2" height="247.2" width="395.52"><g><path d="M55.039 247.2l64.853-112.329v13.136l-53.269 92.265h262.274l-53.269-92.265v-13.136l64.853 112.329zM197.76 0l26.403 45.732-7.583 0-18.82-32.596-18.82 32.596-7.583 0z" fill="#8b3c7f" fill-rule="nonzero" stroke="none" stroke-width="1" stroke-linecap="butt" stroke-linejoin="miter" stroke-miterlimit="10" stroke-dasharray="" stroke-dashoffset="0" font-family="none" font-weight="none" font-size="none" text-anchor="none" style="mix-blend-mode: normal" data-fill-palette-color="tertiary"></path></g><g transform="matrix(1,0,0,1,142.14,67.97999999999999)"><svg viewBox="0 0 111.24 111.24" height="111.24" width="111.24"><g><svg viewBox="0 0 111.24 111.24" height="111.24" width="111.24"><g><svg viewBox="0 0 111.24 111.24" height="111.24" width="111.24"><g><svg viewBox="0 0 111.24 111.24" height="111.24" width="111.24"><g><svg viewBox="0 0 111.24 111.24" height="111.24" width="111.24"><g transform="matrix(1,0,0,1,0,0)"><svg width="111.24" viewBox="3 -27.65 27.95 27.95" height="111.24" data-palette-color="#8b3c7f"><path d="M17 0.3L17 0.3Q13 0.3 9.83-1.53 6.65-3.35 4.83-6.53 3-9.7 3-13.65L3-13.65Q3-17.65 4.83-20.83 6.65-24 9.83-25.83 13-27.65 17-27.65L17-27.65Q21-27.65 24.15-25.83 27.3-24 29.13-20.83 30.95-17.65 30.95-13.65L30.95-13.65 29.7-11.65Q29.7-8.25 28.03-5.55 26.35-2.85 23.5-1.28 20.65 0.3 17 0.3ZM17-2.5L17-2.5Q20.15-2.5 22.63-3.98 25.1-5.45 26.53-7.98 27.95-10.5 27.95-13.65L27.95-13.65Q27.95-16.85 26.53-19.38 25.1-21.9 22.63-23.38 20.15-24.85 17-24.85L17-24.85Q13.9-24.85 11.4-23.38 8.9-21.9 7.45-19.38 6-16.85 6-13.65L6-13.65Q6-10.5 7.45-7.98 8.9-5.45 11.4-3.98 13.9-2.5 17-2.5ZM29.5 0L29.5 0Q28.8 0 28.38-0.43 27.95-0.85 27.95-1.5L27.95-1.5 27.95-10.65 28.9-13.65 30.95-13.65 30.95-1.5Q30.95-0.85 30.55-0.43 30.15 0 29.5 0Z" opacity="1" transform="matrix(1,0,0,1,0,0)" fill="#8b3c7f" class="undefined-text-0" data-fill-palette-color="primary" id="text-0"></path></svg></g></svg></g></svg></g></svg></g></svg></g></svg></g></svg></g><defs></defs></svg><rect width="395.52" height="247.2" fill="none" stroke="none" visibility="hidden"></rect></g></svg></g></svg>